
<svg width="125px" height="107px" viewBox="0 0 125 107" version="1.1" xmlns="http://www.w3.org/2000/svg" xmlns:xlink="http://www.w3.org/1999/xlink">
    <!-- Generator: Sketch 46.2 (44496) - http://www.bohemiancoding.com/sketch -->
    <desc>Created with Sketch.</desc>
    <defs></defs>
    <g id="Nike-Digital-Hub" stroke="none" stroke-width="1" fill="none" fill-rule="evenodd">
        <g id="Nike-landing" transform="translate(-19.000000, -133.000000)">
            <g id="Group" transform="translate(20.000000, 134.000000)" stroke="#FFFFFF" stroke-width="1.4" fill-opacity="0" fill="#000000">
                <path d="M0,47.9011245 L0,0.0342603604 L12.303378,0.0342603604 L18.7641972,16.8372658 C19.1145464,17.8293301 19.5112594,18.9660534 19.9543481,20.2474698 C20.3974368,21.5288863 20.8868879,23.0066266 21.422716,24.6807351 L22.7519755,28.8969874 C22.2779736,24.7427181 21.9173254,21.1878742 21.6700201,18.2323493 C21.4227148,15.2768243 21.299064,12.7967007 21.299064,10.7919041 L21.299064,0.0342603604 L33.602442,0.0342603604 L33.602442,47.9011245 L21.299064,47.9011245 L14.8073319,30.2920709 C14.1272422,28.4112823 13.5141403,26.6493611 12.9680078,25.0062546 C12.4218752,23.3631481 11.9427283,21.79757 11.5305528,20.3094736 C11.7984669,23.6783586 11.9942473,26.6131716 12.1179,29.1140004 C12.2415526,31.6148292 12.303378,33.805605 12.303378,35.6863937 L12.303378,47.9011245 L0,47.9011245 Z M53.1703775,47.9011245 L40.2796522,47.9011245 L40.2796522,0.0342603604 L53.1703775,0.0342603604 L53.1703775,47.9011245 Z M94.8720282,47.9011245 L80.9611736,47.9011245 L72.3982698,25.8278038 L72.7383129,47.9011245 L59.8475877,47.9011245 L59.8475877,0.0342603604 L72.7383129,0.0342603604 L72.3982698,20.5574884 L80.0028703,0.0342603604 L93.6045948,0.0342603604 L83.3105624,23.1306424 L94.8720282,47.9011245 Z M98.5815894,47.9011245 L98.5815894,0.0342603604 L122.539172,0.0342603604 L122.539172,11.2879337 L111.472315,11.2879337 L111.472315,18.2633511 L121.395391,18.2633511 L121.395391,29.0829985 L111.472315,29.0829985 L111.472315,36.3994363 L122.539172,36.3994363 L122.539172,47.9011245 L98.5815894,47.9011245 Z" id="NIKE"></path>
            </g>
            <g id="Group-2" transform="translate(20.000000, 190.000000)" fill="#FFFFFF">
                <path d="M14.0953921,0.337000083 L11.1373565,6.96589595 L10.6623481,6.96589595 L9.71233115,1.51671884 L3.17706376,1.51671884 L4.08962927,6.96589595 L1.35130854,6.96589595 L1.35130854,11.796501 L8.98265326,11.796501 L7.41219167,15.335033 L0.437494644,15.335033 L0.437494644,20.3347935 L5.1850824,20.3347935 L-6.24189818e-05,31.7381173 L3.90736584,31.7381173 L3.90736584,35.3896277 L13.0723449,35.3896277 L13.0723449,37.9743977 L0.510524852,37.9743977 L0.510524852,42.7488257 L13.0723449,42.7488257 L13.0723449,44.7705765 L8.43523879,44.7705765 L9.63992514,49.4900757 L19.7187181,49.4900757 L19.7187181,42.7488257 L32.207508,42.7488257 L32.207508,37.9743977 L19.7187181,37.9743977 L19.7187181,35.3896277 L28.8843214,35.3896277 L28.8843214,31.9634498 L32.7917497,31.9634498 L27.0585662,20.3347935 L32.207508,20.3347935 L32.207508,15.335033 L14.9711304,15.335033 L16.5422161,11.796501 L31.2943183,11.796501 L31.2943183,6.96589595 L28.336907,6.96589595 L30.3087226,1.51671884 L23.2971984,1.51671884 L21.2161495,6.96589595 L18.623265,6.96589595 L21.5444734,0.337000083 L14.0953921,0.337000083 Z M12.7808483,20.3347935 L19.3535671,20.3347935 L20.6312836,23.0874706 L11.5755378,23.0874706 L12.7808483,20.3347935 Z M19.7187181,28.087231 L23.0781077,28.087231 L24.3196213,30.727554 L19.7187181,30.727554 L19.7187181,28.087231 Z M9.34842849,28.087231 L13.0723449,28.087231 L13.0723449,30.727554 L8.14249376,30.727554 L9.34842849,28.087231 Z" id="Fill-1"></path>
                <path d="M42.2844909,0.112291748 L42.2844909,1.79760426 L36.7710222,1.79760426 L36.7710222,5.61764595 L42.2844909,5.61764595 L42.2844909,6.96589595 L37.2822337,6.96589595 L37.2822337,18.1438872 L42.2844909,18.1438872 L42.2844909,19.5483143 L36.5151044,19.5483143 L36.5151044,23.0312935 L37.5743545,23.0312935 L37.5743545,28.2551381 L59.0820631,28.2551381 L60.9440213,26.1772102 L62.9532883,28.2551381 L70.1464518,28.2551381 L64.4132683,22.2454385 L68.0279515,18.2568656 L68.0279515,13.5941676 L54.0423545,13.5941676 L54.0423545,18.0877101 L61.3822025,18.0877101 L60.104486,19.5483143 L54.3713025,19.5483143 L57.3655411,22.582501 L52.8376681,27.5816373 L52.8376681,23.0312935 L53.7870608,23.0312935 L53.7870608,19.5483143 L48.1637348,19.5483143 L48.1637348,18.1438872 L53.0935859,18.1438872 L53.0935859,12.4700018 L58.7162878,12.4700018 L59.9590498,9.60621889 L59.9590498,5.4491147 L61.857211,5.4491147 L61.857211,12.4700018 L68.2108392,12.4700018 L69.5984131,7.58321968 L67.2614464,7.58321968 L67.2614464,0.674062585 L54.6634233,0.674062585 L54.6634233,8.08881344 L53.0935859,11.852678 L53.0935859,6.96589595 L48.1637348,6.96589595 L48.1637348,5.61764595 L53.4212856,5.61764595 L53.4212856,1.79760426 L48.1637348,1.79760426 L48.1637348,0.112291748 L42.2844909,0.112291748 Z M48.1637348,11.2353543 L50.0263172,11.2353543 L50.0263172,9.60621889 L48.1637348,9.60621889 L48.1637348,11.2353543 Z M40.4225326,11.2353543 L42.2851151,11.2353543 L42.2851151,9.60621889 L40.4225326,9.60621889 L40.4225326,11.2353543 Z M48.1637348,15.2233031 L50.0263172,15.2233031 L50.0263172,13.7626989 L48.1637348,13.7626989 L48.1637348,15.2233031 Z M40.4225326,15.2233031 L42.2851151,15.2233031 L42.2851151,13.7626989 L40.4225326,13.7626989 L40.4225326,15.2233031 Z M48.1637348,24.9419385 L49.8796326,24.9419385 L49.8796326,23.0312935 L48.1637348,23.0312935 L48.1637348,24.9419385 Z M40.5685931,24.9419385 L42.2844909,24.9419385 L42.2844909,23.0312935 L40.5685931,23.0312935 L40.5685931,24.9419385 Z M61.7473536,28.9854402 L61.4926841,29.941699 L37.4638729,29.941699 L37.4638729,33.7611165 L49.2223607,33.7611165 L49.2223607,35.1655436 L38.3046566,35.1655436 L38.3046566,38.6485228 L49.2223607,38.6485228 L49.2223607,40.0529498 L36.6249618,40.0529498 L36.6249618,44.2656069 L49.2223607,44.2656069 L49.2223607,45.7823882 L43.781298,45.7823882 L45.3885868,49.7141599 L56.3431181,49.7141599 L56.3431181,44.2656069 L69.0878259,44.2656069 L69.0878259,40.0529498 L56.3431181,40.0529498 L56.3431181,38.6485228 L67.6272217,38.6485228 L67.6272217,35.1655436 L56.3431181,35.1655436 L56.3431181,33.7611165 L67.3706797,33.7611165 L68.430554,28.9854402 L61.7473536,28.9854402 Z" id="Fill-2"></path>
            </g>
        </g>
    </g>
</svg>