<svg width="141px" height="18px" viewBox="0 0 141 18" version="1.1" xmlns="http://www.w3.org/2000/svg" xmlns:xlink="http://www.w3.org/1999/xlink">
    <!-- Generator: Sketch 47.1 (45422) - http://www.bohemiancoding.com/sketch -->
    <desc>Created with Sketch.</desc>
    <defs></defs>
    <g id="Nike-Digital-Hub" stroke="none" stroke-width="1" fill="none" fill-rule="evenodd">
        <g id="Desktop-view" transform="translate(-580.000000, -753.000000)">
            <g id="Group" transform="translate(580.000000, 753.000000)">
                <g id="Page-1" transform="translate(0.000000, 1.000000)" fill="#FFFFFF">
                    <path d="M2.73179167,9.94204167 C2.73179167,11.1199583 2.33679167,11.7087083 1.546375,11.7087083 C0.953458333,11.7087083 0.438041667,11.4249583 0.000125,10.8570417 L0.000125,14.6962083 C0.956791667,14.9882917 1.796375,15.1349583 2.51845833,15.1349583 C3.88304167,15.1349583 4.91679167,14.737875 5.62054167,13.942875 C5.985125,13.530375 6.235125,13.0782917 6.37054167,12.5870417 C6.51845833,12.0899583 6.59304167,11.4249583 6.59304167,10.5937083 L6.59304167,0.837875 L2.73179167,0.837875 L2.73179167,9.94204167 Z" id="Fill-1"></path>
                    <path d="M13.81025,10.0156667 C13.81025,10.6535833 13.7394167,11.0985833 13.5973333,11.35025 C13.45525,11.5885833 13.1994167,11.7085833 12.829,11.7085833 C12.4706667,11.7085833 12.2160833,11.58025 12.0648333,11.3223333 C11.9135833,11.0644167 11.83775,10.6260833 11.83775,10.0065 L11.83775,0.83775 L7.97691667,0.83775 L7.97691667,10.239 C7.97691667,12.04025 8.54441667,13.3515 9.68066667,14.17025 C10.5756667,14.814 11.6835833,15.1348333 13.0048333,15.1348333 C14.1715,15.1348333 15.1623333,14.8444167 15.9773333,14.2610833 C16.5819167,13.8248333 17.0144167,13.3360833 17.2735833,12.7960833 C17.539,12.2810833 17.6719167,11.6073333 17.6719167,10.7760833 L17.6719167,0.83775 L13.81025,0.83775 L13.81025,10.0156667 Z" id="Fill-3"></path>
                    <path d="M23.9530833,6.62883333 L23.3418333,6.19216667 C22.8168333,5.82925 22.55475,5.46341667 22.55475,5.09425 C22.55475,4.86841667 22.6535,4.67466667 22.851,4.51383333 C23.04225,4.34716667 23.286,4.26425 23.58225,4.26425 C23.971,4.26425 24.3664167,4.40466667 24.7676667,4.6855 C25.1689167,4.96633333 25.52725,5.35091667 25.8418333,5.83841667 L25.8418333,1.54841667 C24.90975,1.07508333 23.9835,0.838 23.0639167,0.838 C22.0330833,0.838 21.1530833,1.1355 20.4251667,1.73133333 C20.1593333,1.94008333 19.92475,2.17925 19.721,2.4505 C19.51725,2.72133333 19.3380833,3.0205 19.1839167,3.34841667 C18.8751667,4.05091667 18.7205833,4.72383333 18.7205833,5.36675 C18.7205833,5.74216667 18.7643333,6.09925 18.8505833,6.43883333 C18.9368333,6.778 19.0730833,7.10675 19.2580833,7.42591667 C19.4435,7.74466667 19.6839167,8.05383333 19.9805833,8.35466667 C20.2764167,8.6555 20.63475,8.95758333 21.05475,9.26175 L21.6839167,9.73508333 C22.141,10.0859167 22.3693333,10.44675 22.3693333,10.8159167 C22.3693333,11.0721667 22.2643333,11.2846667 22.0543333,11.4550833 C21.8443333,11.6246667 21.5730833,11.7088333 21.2393333,11.7088333 C20.3568333,11.7088333 19.536,11.1905 18.7764167,10.153 L18.7764167,14.5521667 C19.8139167,14.9409167 20.786,15.1350833 21.6935,15.1350833 C23.0080833,15.1350833 24.09475,14.6950833 24.9530833,13.81425 C25.8105833,12.9334167 26.23975,11.8150833 26.23975,10.4588333 C26.23975,9.6605 26.0605833,8.96425 25.7030833,8.36966667 C25.351,7.77466667 24.7676667,7.19466667 23.9530833,6.62883333" id="Fill-5"></path>
                    <polygon id="Fill-7" points="27.0339583 4.264125 29.1635417 4.264125 29.1635417 15.1349583 33.0247917 15.1349583 33.0247917 4.264125 35.238125 4.264125 35.238125 0.837875 27.0339583 0.837875"></polygon>
                    <path d="M44.8552083,11.7092083 L44.8552083,4.43045833 L44.975625,4.43045833 C45.574375,4.43045833 46.0497917,4.764625 46.401875,5.430875 C46.7539583,6.09129167 46.9297917,6.993375 46.9297917,8.13504167 C46.9297917,10.4500417 46.238125,11.640875 44.8552083,11.7092083 M44.3277083,0.837958333 L40.9939583,0.837958333 L40.9939583,15.1350417 L44.6052083,15.1350417 C46.599375,15.1350417 48.099375,14.585875 49.105625,13.4867083 C50.2847917,12.197125 50.8739583,10.365875 50.8739583,7.995875 C50.8739583,5.58795833 50.1764583,3.71504167 48.7814583,2.37504167 C47.7197917,1.35045833 46.2352083,0.837958333 44.3277083,0.837958333" id="Fill-9"></path>
                    <path d="M58.577125,10.7460833 C58.3304583,11.3881667 57.978375,11.709 57.5212917,11.709 C57.077125,11.709 56.729625,11.3835833 56.479625,10.7331667 C56.229625,10.0819167 56.1050417,9.16733333 56.1050417,7.9865 C56.1050417,6.78775 56.2375417,5.88066667 56.5029583,5.26275 C56.774625,4.59733333 57.1387917,4.264 57.595875,4.264 C58.5087917,4.264 58.9662917,5.53191667 58.9662917,8.06816667 C58.9662917,9.21233333 58.8362917,10.10525 58.577125,10.7460833 M57.577125,0.83775 C56.2312917,0.83775 55.0679583,1.31816667 54.085875,2.27733333 C52.7650417,3.5715 52.104625,5.43983333 52.104625,7.88316667 C52.104625,10.4348333 52.737125,12.3485833 54.0025417,13.624 C55.0092083,14.6315 56.215875,15.1348333 57.6229583,15.1348333 C59.209625,15.1348333 60.4967083,14.4794167 61.4850417,13.16775 C62.478375,11.8506667 62.9754583,10.14025 62.9754583,8.03566667 C62.9754583,5.83608333 62.4875417,4.0865 61.5125417,2.78733333 C60.537125,1.48775 59.2254583,0.83775 57.577125,0.83775" id="Fill-11"></path>
                    <polygon id="Fill-13" points="69 15.1349167 72.8616667 15.1349167 72.8616667 0.837833333 69 0.837833333"></polygon>
                    <polygon id="Fill-15" points="74.1652917 4.264125 76.294875 4.264125 76.294875 15.1349583 80.156125 15.1349583 80.156125 4.264125 82.3694583 4.264125 82.3694583 0.837875 74.1652917 0.837875"></polygon>
                </g>
                <path d="M120.599349,5.87299046 C118.098752,6.54420022 115.984527,7.10145247 114.248318,7.55120479 C112.518187,8.00969386 111.078691,8.3853738 109.92717,8.69913683 C107.247633,9.40757271 105.662629,9.82503707 105.17178,9.94925077 C104.94801,10.0050899 104.694987,10.0563708 104.419929,10.1209468 C104.138412,10.1813442 103.844738,10.2417417 103.544606,10.286565 C103.239535,10.3427841 102.937882,10.3796303 102.633571,10.4092593 C102.334578,10.4461055 102.038625,10.4567416 101.765846,10.4544624 C101.090738,10.4491444 100.447543,10.3602575 99.8119456,10.1957789 C99.1907854,10.0320599 98.6349704,9.75780214 98.1410815,9.40111512 C97.6468127,9.04328852 97.2570204,8.57758214 96.9591674,7.99373981 C96.6715721,7.41559535 96.5291042,6.72349338 96.5359426,5.89920069 C96.5412614,5.19038494 96.6951268,4.36647211 96.9815824,3.40125196 C97.2710772,2.45654416 97.7615469,1.32608561 98.4408341,0 C98.1889508,0.228294888 97.8242328,0.581183326 97.3474401,1.0560063 C96.8793854,1.5543805 96.3744789,2.12150907 95.8236029,2.78740081 C95.2822246,3.46278902 94.7176717,4.19477612 94.164896,4.99437802 C93.5874259,5.79625906 93.0741614,6.63042807 92.6049669,7.48662887 C92.1369122,8.34396924 91.755478,9.20890678 91.4599045,10.0837206 C91.1631913,10.9513172 91.0062866,11.7843466 91.0002079,12.5942047 C90.9941293,13.3562006 91.1214007,14.0627372 91.3725242,14.7271095 C91.6278267,15.3903422 91.9990032,15.9555715 92.4974511,16.4372319 C92.9947592,16.9162334 93.6204785,17.3052084 94.3848665,17.5806057 C95.134058,17.8510648 96.0169794,17.9923722 97.0161546,17.9995895 C97.7140576,18.0052874 98.4248777,17.9517273 99.1322785,17.8354907 C99.845758,17.7215331 100.536443,17.5787064 101.194455,17.3937154 C101.855126,17.2174611 102.478946,17.0203146 103.059455,16.8163306 C103.643764,16.6051294 104.154369,16.4197585 104.588611,16.2328681 C105.028932,16.0531951 105.379213,15.9027712 105.636035,15.7758985 C105.903875,15.6573827 106.042544,15.5969852 106.0604,15.5969852 L141,0.475962554 C136.608188,1.63491048 132.735339,2.66242741 129.381454,3.54673772 C126.02149,4.43256747 123.097287,5.20026126 120.599349,5.87299046 Z" id="Fill-16" fill="#EE3932"></path>
            </g>
        </g>
    </g>
</svg>