
<svg width="459px" height="17px" viewBox="0 0 459 17" version="1.1" xmlns="http://www.w3.org/2000/svg" xmlns:xlink="http://www.w3.org/1999/xlink">
    <!-- Generator: Sketch 47.1 (45422) - http://www.bohemiancoding.com/sketch -->
    <desc>Created with Sketch.</desc>
    <defs></defs>
    <g id="Nike-Digital-Hub" stroke="none" stroke-width="1" fill="none" fill-rule="evenodd">
        <g id="Desktop-view" transform="translate(-411.000000, -30.000000)" fill="#FFFFFF">
            <path d="M418.620117,46 L414.469727,46 L411.012695,30.921875 L415.290039,30.921875 L416.032227,35.2285156 C416.312176,36.8756593 416.536783,38.7180888 416.706055,40.7558594 C416.77767,39.8509069 416.865559,39.0045612 416.969727,38.2167969 C417.073894,37.4290325 417.19759,36.660811 417.34082,35.9121094 L418.307617,30.921875 L422.731445,30.921875 L418.620117,46 Z M427.858398,46 L423.786133,46 L423.786133,30.921875 L427.858398,30.921875 L427.858398,46 Z M429.967773,46 L429.967773,30.921875 L437.536133,30.921875 L437.536133,34.4667969 L434.040039,34.4667969 L434.040039,36.6640625 L437.174805,36.6640625 L437.174805,40.0722656 L434.040039,40.0722656 L434.040039,42.3769531 L437.536133,42.3769531 L437.536133,46 L429.967773,46 Z M452.204102,46 L448.27832,46 L447.34082,40.7167969 C447.158528,39.6946563 447.02181,38.8092485 446.930664,38.0605469 C446.885091,37.6894513 446.846029,37.3802096 446.813477,37.1328125 C446.780924,36.8854154 446.758138,36.6966152 446.745117,36.5664062 C446.712565,36.8333347 446.663737,37.3313766 446.598633,38.0605469 C446.566081,38.4316425 446.527018,38.8222636 446.481445,39.2324219 C446.435872,39.6425802 446.380534,40.0755186 446.31543,40.53125 L445.543945,46 L441.579102,46 L438.219727,30.921875 L442.243164,30.921875 L442.907227,35.0722656 C443.161134,36.7259197 443.336914,38.0247349 443.43457,38.96875 L443.571289,40.3457031 L443.698242,39.1640625 C443.834962,37.7838473 444.010741,36.4720114 444.225586,35.2285156 L444.987305,30.921875 L448.493164,30.921875 L449.176758,34.5449219 C449.50228,36.2311282 449.785481,38.226551 450.026367,40.53125 C450.097982,39.4960886 450.176106,38.578129 450.260742,37.7773438 C450.345378,36.9765585 450.439778,36.2506543 450.543945,35.5996094 L451.286133,30.921875 L455.260742,30.921875 L452.204102,46 Z M473.415039,38.5097656 C473.415039,40.8079542 472.890956,42.6764251 471.842773,44.1152344 C470.801102,45.5475332 469.443693,46.2636719 467.770508,46.2636719 C466.286125,46.2636719 465.013352,45.7135472 463.952148,44.6132812 C462.617506,43.2200451 461.950195,41.1302223 461.950195,38.34375 C461.950195,35.6744658 462.646803,33.6334706 464.040039,32.2207031 C465.0752,31.1725208 466.302402,30.6484375 467.72168,30.6484375 C469.45997,30.6484375 470.843419,31.3580658 471.87207,32.7773438 C472.900721,34.1966217 473.415039,36.1074099 473.415039,38.5097656 Z M469.186523,38.5390625 C469.186523,35.8111843 468.704757,34.4472656 467.741211,34.4472656 C467.259438,34.4472656 466.875327,34.805335 466.588867,35.5214844 C466.308918,36.1855502 466.168945,37.1621029 466.168945,38.4511719 C466.168945,39.7207095 466.30078,40.7054001 466.564453,41.4052734 C466.828126,42.1051467 467.194334,42.4550781 467.663086,42.4550781 C468.144859,42.4550781 468.515949,42.1100295 468.776367,41.4199219 C469.049806,40.7298143 469.186523,39.7695374 469.186523,38.5390625 Z M475.15332,46 L475.15332,30.921875 L479.040039,30.921875 L481.081055,36.2148438 C481.191732,36.5273453 481.317057,36.8854146 481.457031,37.2890625 C481.597006,37.6927104 481.751627,38.1582005 481.920898,38.6855469 L482.34082,40.0136719 C482.19108,38.7050716 482.077149,37.5852911 481.999023,36.6542969 C481.920898,35.7233026 481.881836,34.9420604 481.881836,34.3105469 L481.881836,30.921875 L485.768555,30.921875 L485.768555,46 L481.881836,46 L479.831055,40.453125 C479.61621,39.8606741 479.422527,39.3056667 479.25,38.7880859 C479.077473,38.2705052 478.926107,37.7773461 478.795898,37.3085938 C478.880534,38.369797 478.942383,39.2942669 478.981445,40.0820312 C479.020508,40.8697956 479.040039,41.5598929 479.040039,42.1523438 L479.040039,46 L475.15332,46 Z M504.75293,46 L500.543945,46 L500.241211,44.0859375 L497.49707,44.0859375 L497.165039,46 L492.956055,46 L496.579102,30.921875 L501.55957,30.921875 L504.75293,46 Z M499.762695,40.8535156 L499.499023,39.0957031 C499.492513,39.0891927 499.479492,39.0013029 499.459961,38.8320312 C499.44694,38.6888014 499.378581,38.1224008 499.254883,37.1328125 C499.241862,37.0221349 499.225586,36.8707692 499.206055,36.6787109 C499.186523,36.4866527 499.160482,36.2441421 499.12793,35.9511719 L499.000977,34.5253906 C498.987956,34.6621101 498.970052,34.8151033 498.947266,34.984375 C498.924479,35.1536467 498.900065,35.3391917 498.874023,35.5410156 C498.82845,35.9446635 498.795899,36.2246086 498.776367,36.3808594 C498.756836,36.5371102 498.743815,36.6315103 498.737305,36.6640625 L498.454102,38.4902344 L498.043945,40.8535156 L499.762695,40.8535156 Z M527.467773,46 L523.209961,46 L522.907227,39.125 L522.780273,36.3808594 C522.7347,36.9082058 522.682617,37.4111304 522.624023,37.8896484 C522.565429,38.3681665 522.493816,38.832029 522.40918,39.28125 L521.129883,46 L517.80957,46 L516.71582,39.2714844 C516.650716,38.8808574 516.562826,38.2102912 516.452148,37.2597656 C516.439128,37.1165357 516.409831,36.8235699 516.364258,36.3808594 L516.266602,39.1640625 L515.905273,46 L511.569336,46 L513.327148,30.921875 L518.395508,30.921875 L519.245117,36 C519.316732,36.4166687 519.380208,36.8691382 519.435547,37.3574219 C519.490886,37.8457056 519.541341,38.3762992 519.586914,38.9492188 C519.67155,37.9921827 519.788736,37.1360715 519.938477,36.3808594 L520.973633,30.921875 L526.00293,30.921875 L527.467773,46 Z M540.358398,38.5097656 C540.358398,40.8079542 539.834315,42.6764251 538.786133,44.1152344 C537.744461,45.5475332 536.387053,46.2636719 534.713867,46.2636719 C533.229485,46.2636719 531.956711,45.7135472 530.895508,44.6132812 C529.560866,43.2200451 528.893555,41.1302223 528.893555,38.34375 C528.893555,35.6744658 529.590162,33.6334706 530.983398,32.2207031 C532.01856,31.1725208 533.245761,30.6484375 534.665039,30.6484375 C536.403329,30.6484375 537.786779,31.3580658 538.81543,32.7773438 C539.844081,34.1966217 540.358398,36.1074099 540.358398,38.5097656 Z M536.129883,38.5390625 C536.129883,35.8111843 535.648117,34.4472656 534.68457,34.4472656 C534.202797,34.4472656 533.818686,34.805335 533.532227,35.5214844 C533.252277,36.1855502 533.112305,37.1621029 533.112305,38.4511719 C533.112305,39.7207095 533.244139,40.7054001 533.507812,41.4052734 C533.771486,42.1051467 534.137693,42.4550781 534.606445,42.4550781 C535.088219,42.4550781 535.459309,42.1100295 535.719727,41.4199219 C535.993165,40.7298143 536.129883,39.7695374 536.129883,38.5390625 Z M542.09668,46 L542.09668,30.921875 L546.833008,30.921875 C548.60385,30.921875 549.915686,31.3124961 550.768555,32.09375 C551.634444,32.8945353 552.067383,33.9296812 552.067383,35.1992188 C552.067383,37.087249 551.129892,38.1093742 549.254883,38.265625 C550.322596,38.4218758 551.105466,38.7734348 551.603516,39.3203125 C552.101565,39.8671902 552.350586,40.6549428 552.350586,41.6835938 C552.350586,42.9791731 551.930668,44.0208294 551.09082,44.8085938 C550.257483,45.6028686 549.160489,46 547.799805,46 L542.09668,46 Z M546.168945,42.7285156 C546.247071,42.7350261 546.315429,42.7399088 546.374023,42.7431641 C546.432617,42.7464193 546.481445,42.7480469 546.520508,42.7480469 C547.028323,42.7480469 547.433592,42.6145847 547.736328,42.3476562 C548.039064,42.0807278 548.19043,41.7226585 548.19043,41.2734375 C548.19043,40.8242165 548.039064,40.4726575 547.736328,40.21875 C547.433592,39.9648425 547.018557,39.8378906 546.491211,39.8378906 L546.168945,39.8378906 L546.168945,42.7285156 Z M546.168945,36.78125 L546.442383,36.78125 C546.930667,36.78125 547.316405,36.6673188 547.599609,36.4394531 C547.882814,36.2115874 548.024414,35.8925802 548.024414,35.4824219 C548.024414,34.6100217 547.545903,34.1738281 546.588867,34.1738281 C546.543294,34.1738281 546.486328,34.1754557 546.417969,34.1787109 C546.349609,34.1819662 546.266602,34.1868489 546.168945,34.1933594 L546.168945,36.78125 Z M558.161133,46 L554.088867,46 L554.088867,30.921875 L558.161133,30.921875 L558.161133,46 Z M567.399414,46 L560.270508,46 L560.270508,30.921875 L564.342773,30.921875 L564.342773,42.3769531 L567.399414,42.3769531 L567.399414,46 Z M568.610352,46 L568.610352,30.921875 L576.178711,30.921875 L576.178711,34.4667969 L572.682617,34.4667969 L572.682617,36.6640625 L575.817383,36.6640625 L575.817383,40.0722656 L572.682617,40.0722656 L572.682617,42.3769531 L576.178711,42.3769531 L576.178711,46 L568.610352,46 Z M583.932617,46 L583.932617,30.921875 L587.448242,30.921875 C589.459971,30.921875 591.025711,31.4622342 592.145508,32.5429688 C593.616869,33.9557362 594.352539,35.9316279 594.352539,38.4707031 C594.352539,40.9707156 593.7308,42.9010349 592.487305,44.2617188 C591.426101,45.4205787 589.844086,46 587.741211,46 L583.932617,46 Z M588.004883,42.3574219 C589.463223,42.2858069 590.192383,41.0293091 590.192383,38.5878906 C590.192383,37.3834575 590.006838,36.4329462 589.635742,35.7363281 C589.264647,35.0331996 588.76335,34.6816406 588.131836,34.6816406 L588.004883,34.6816406 L588.004883,42.3574219 Z M596.09082,46 L596.09082,30.921875 L603.65918,30.921875 L603.65918,34.4667969 L600.163086,34.4667969 L600.163086,36.6640625 L603.297852,36.6640625 L603.297852,40.0722656 L600.163086,40.0722656 L600.163086,42.3769531 L603.65918,42.3769531 L603.65918,46 L596.09082,46 Z M611.950195,46 L607.799805,46 L604.342773,30.921875 L608.620117,30.921875 L609.362305,35.2285156 C609.642254,36.8756593 609.866861,38.7180888 610.036133,40.7558594 C610.107748,39.8509069 610.195637,39.0045612 610.299805,38.2167969 C610.403972,37.4290325 610.527669,36.660811 610.670898,35.9121094 L611.637695,30.921875 L616.061523,30.921875 L611.950195,46 Z M621.188477,46 L617.116211,46 L617.116211,30.921875 L621.188477,30.921875 L621.188477,46 Z M631.774414,41.3613281 L631.540039,45.7167969 C630.635087,46.081382 629.824548,46.2636719 629.108398,46.2636719 C627.422192,46.2636719 626.002935,45.6451885 624.850586,44.4082031 C623.561517,43.0214774 622.916992,41.0586064 622.916992,38.5195312 C622.916992,36.1432173 623.522455,34.2356843 624.733398,32.796875 C625.944342,31.3645762 627.562164,30.6484375 629.586914,30.6484375 C630.244469,30.6484375 630.915036,30.7721342 631.598633,31.0195312 L631.598633,35.3261719 C630.993161,34.7207001 630.371422,34.4179688 629.733398,34.4179688 C628.900061,34.4179688 628.249026,34.7727829 627.780273,35.4824219 C627.311521,36.1985713 627.077148,37.1881447 627.077148,38.4511719 C627.077148,39.0631541 627.135742,39.6100236 627.25293,40.0917969 C627.370118,40.5735701 627.537759,40.9804671 627.755859,41.3125 C627.973959,41.6445329 628.242511,41.8984366 628.561523,42.0742188 C628.880535,42.2500009 629.245115,42.3378906 629.655273,42.3378906 C630.358402,42.3378906 631.064775,42.012373 631.774414,41.3613281 Z M633.366211,46 L633.366211,30.921875 L640.93457,30.921875 L640.93457,34.4667969 L637.438477,34.4667969 L637.438477,36.6640625 L640.573242,36.6640625 L640.573242,40.0722656 L637.438477,40.0722656 L637.438477,42.3769531 L640.93457,42.3769531 L640.93457,46 L633.366211,46 Z M652.760742,46 L648.688477,46 L648.688477,30.921875 L655.885742,30.921875 L655.885742,34.4667969 L652.760742,34.4667969 L652.760742,36.6640625 L655.670898,36.6640625 L655.670898,40.0722656 L652.760742,40.0722656 L652.760742,46 Z M668.551758,38.5097656 C668.551758,40.8079542 668.027675,42.6764251 666.979492,44.1152344 C665.93782,45.5475332 664.580412,46.2636719 662.907227,46.2636719 C661.422844,46.2636719 660.15007,45.7135472 659.088867,44.6132812 C657.754225,43.2200451 657.086914,41.1302223 657.086914,38.34375 C657.086914,35.6744658 657.783522,33.6334706 659.176758,32.2207031 C660.211919,31.1725208 661.439121,30.6484375 662.858398,30.6484375 C664.596688,30.6484375 665.980138,31.3580658 667.008789,32.7773438 C668.03744,34.1966217 668.551758,36.1074099 668.551758,38.5097656 Z M664.323242,38.5390625 C664.323242,35.8111843 663.841476,34.4472656 662.87793,34.4472656 C662.396156,34.4472656 662.012046,34.805335 661.725586,35.5214844 C661.445637,36.1855502 661.305664,37.1621029 661.305664,38.4511719 C661.305664,39.7207095 661.437499,40.7054001 661.701172,41.4052734 C661.964845,42.1051467 662.331052,42.4550781 662.799805,42.4550781 C663.281578,42.4550781 663.652668,42.1100295 663.913086,41.4199219 C664.186525,40.7298143 664.323242,39.7695374 664.323242,38.5390625 Z M681.012695,46 L676.608398,46 L674.59668,40.6289062 C674.577148,40.53776 674.542969,40.4173185 674.494141,40.2675781 C674.445312,40.1178378 674.385092,39.9388031 674.313477,39.7304688 L674.342773,40.7265625 L674.342773,46 L670.290039,46 L670.290039,30.921875 L674.459961,30.921875 C676.295908,30.921875 677.669592,31.2831995 678.581055,32.0058594 C679.739915,32.9303432 680.319336,34.2454342 680.319336,35.9511719 C680.319336,37.7740977 679.541349,39.0338507 677.985352,39.7304688 L681.012695,46 Z M674.362305,37.9042969 L674.635742,37.9042969 C675.104495,37.9042969 675.495116,37.7252622 675.807617,37.3671875 C676.120119,37.0091128 676.276367,36.5533882 676.276367,36 C676.276367,34.8736923 675.68718,34.3105469 674.508789,34.3105469 L674.362305,34.3105469 L674.362305,37.9042969 Z M693.639648,46 L689.567383,46 L689.567383,34.5351562 L687.321289,34.5351562 L687.321289,30.921875 L695.973633,30.921875 L695.973633,34.5351562 L693.639648,34.5351562 L693.639648,46 Z M707.116211,46 L703.043945,46 L703.043945,39.9355469 L701.100586,39.9355469 L701.100586,46 L697.02832,46 L697.02832,30.921875 L701.100586,30.921875 L701.100586,36.2539062 L703.043945,36.2539062 L703.043945,30.921875 L707.116211,30.921875 L707.116211,46 Z M709.225586,46 L709.225586,30.921875 L716.793945,30.921875 L716.793945,34.4667969 L713.297852,34.4667969 L713.297852,36.6640625 L716.432617,36.6640625 L716.432617,40.0722656 L713.297852,40.0722656 L713.297852,42.3769531 L716.793945,42.3769531 L716.793945,46 L709.225586,46 Z M724.547852,46 L724.547852,30.921875 L729.28418,30.921875 C731.055022,30.921875 732.366858,31.3124961 733.219727,32.09375 C734.085616,32.8945353 734.518555,33.9296812 734.518555,35.1992188 C734.518555,37.087249 733.581064,38.1093742 731.706055,38.265625 C732.773768,38.4218758 733.556638,38.7734348 734.054688,39.3203125 C734.552737,39.8671902 734.801758,40.6549428 734.801758,41.6835938 C734.801758,42.9791731 734.38184,44.0208294 733.541992,44.8085938 C732.708655,45.6028686 731.61166,46 730.250977,46 L724.547852,46 Z M728.620117,42.7285156 C728.698243,42.7350261 728.766601,42.7399088 728.825195,42.7431641 C728.883789,42.7464193 728.932617,42.7480469 728.97168,42.7480469 C729.479495,42.7480469 729.884764,42.6145847 730.1875,42.3476562 C730.490236,42.0807278 730.641602,41.7226585 730.641602,41.2734375 C730.641602,40.8242165 730.490236,40.4726575 730.1875,40.21875 C729.884764,39.9648425 729.469729,39.8378906 728.942383,39.8378906 L728.620117,39.8378906 L728.620117,42.7285156 Z M728.620117,36.78125 L728.893555,36.78125 C729.381838,36.78125 729.767577,36.6673188 730.050781,36.4394531 C730.333986,36.2115874 730.475586,35.8925802 730.475586,35.4824219 C730.475586,34.6100217 729.997075,34.1738281 729.040039,34.1738281 C728.994466,34.1738281 728.9375,34.1754557 728.869141,34.1787109 C728.800781,34.1819662 728.717774,34.1868489 728.620117,34.1933594 L728.620117,36.78125 Z M736.540039,46 L736.540039,30.921875 L744.108398,30.921875 L744.108398,34.4667969 L740.612305,34.4667969 L740.612305,36.6640625 L743.74707,36.6640625 L743.74707,40.0722656 L740.612305,40.0722656 L740.612305,42.3769531 L744.108398,42.3769531 L744.108398,46 L736.540039,46 Z M745.524414,45.6289062 L745.524414,40.8925781 C746.325199,41.9863336 747.191076,42.5332031 748.12207,42.5332031 C748.473635,42.5332031 748.76009,42.4404306 748.981445,42.2548828 C749.202801,42.069335 749.313477,41.8365899 749.313477,41.5566406 C749.313477,41.1529928 749.072594,40.7591165 748.59082,40.375 L747.926758,39.8574219 C747.484047,39.525389 747.106447,39.1949886 746.793945,38.8662109 C746.481444,38.5374333 746.22754,38.198895 746.032227,37.8505859 C745.836913,37.5022769 745.693685,37.14258 745.602539,36.7714844 C745.511393,36.4003888 745.46582,36.0097677 745.46582,35.5996094 C745.46582,34.8964809 745.628579,34.1608111 745.954102,33.3925781 C746.116863,33.0345034 746.305663,32.7073583 746.520508,32.4111328 C746.735353,32.1149074 746.982746,31.8528657 747.262695,31.625 C748.030928,30.9739551 748.958653,30.6484375 750.045898,30.6484375 C751.015955,30.6484375 751.992508,30.9055964 752.975586,31.4199219 L752.975586,36.0292969 C752.643553,35.5149714 752.265953,35.109702 751.842773,34.8134766 C751.419594,34.5172511 751.002932,34.3691406 750.592773,34.3691406 C750.280272,34.3691406 750.023113,34.4602855 749.821289,34.6425781 C749.612955,34.8183603 749.508789,35.0299467 749.508789,35.2773438 C749.508789,35.6809916 749.785479,36.0813782 750.338867,36.4785156 L750.983398,36.9570312 C751.842778,37.5755239 752.458006,38.2102832 752.829102,38.8613281 C753.206708,39.512373 753.395508,40.2740842 753.395508,41.1464844 C753.395508,42.6308668 752.943038,43.8548129 752.038086,44.8183594 C751.133133,45.7819059 749.987312,46.2636719 748.600586,46.2636719 C747.64355,46.2636719 746.61817,46.0520854 745.524414,45.6289062 Z M760.250977,46 L756.178711,46 L756.178711,34.5351562 L753.932617,34.5351562 L753.932617,30.921875 L762.584961,30.921875 L762.584961,34.5351562 L760.250977,34.5351562 L760.250977,46 Z M769.655273,46 L769.655273,30.921875 L777.223633,30.921875 L777.223633,34.4667969 L773.727539,34.4667969 L773.727539,36.6640625 L776.862305,36.6640625 L776.862305,40.0722656 L773.727539,40.0722656 L773.727539,42.3769531 L777.223633,42.3769531 L777.223633,46 L769.655273,46 Z M789.59668,46 L785.075195,46 L784.323242,43.8515625 C784.082356,43.1940071 783.887045,42.562503 783.737305,41.9570312 C783.594075,42.5559926 783.379233,43.2428347 783.092773,44.0175781 L782.34082,46 L777.907227,46 L781.569336,38.1777344 L778.112305,30.921875 L782.643555,30.921875 L783.317383,32.9628906 C783.388998,33.1516937 783.458984,33.3730456 783.527344,33.6269531 C783.595703,33.8808606 783.66569,34.1673161 783.737305,34.4863281 C783.900066,33.8352832 784.036783,33.3339861 784.147461,32.9824219 L784.772461,30.921875 L789.333008,30.921875 L785.895508,38.1777344 L789.59668,46 Z M794.723633,46 L790.651367,46 L790.651367,30.921875 L794.59668,30.921875 C796.562835,30.921875 798.021154,31.3222616 798.97168,32.1230469 C800.091477,33.067062 800.651367,34.3788979 800.651367,36.0585938 C800.651367,37.88803 800.05567,39.2519486 798.864258,40.1503906 C798.050452,40.7558624 796.881844,41.0585938 795.358398,41.0585938 L794.723633,41.0585938 L794.723633,46 Z M794.723633,37.6699219 L794.90918,37.6796875 C795.403974,37.6796875 795.79785,37.5283218 796.09082,37.2255859 C796.383791,36.92285 796.530273,36.5078151 796.530273,35.9804688 C796.530273,35.4596328 796.387046,35.03646 796.100586,34.7109375 C795.814126,34.3789046 795.449546,34.2128906 795.006836,34.2128906 L794.723633,34.2128906 L794.723633,37.6699219 Z M802.077148,46 L802.077148,30.921875 L809.645508,30.921875 L809.645508,34.4667969 L806.149414,34.4667969 L806.149414,36.6640625 L809.28418,36.6640625 L809.28418,40.0722656 L806.149414,40.0722656 L806.149414,42.3769531 L809.645508,42.3769531 L809.645508,46 L802.077148,46 Z M822.106445,46 L817.702148,46 L815.69043,40.6289062 C815.670898,40.53776 815.636719,40.4173185 815.587891,40.2675781 C815.539062,40.1178378 815.478842,39.9388031 815.407227,39.7304688 L815.436523,40.7265625 L815.436523,46 L811.383789,46 L811.383789,30.921875 L815.553711,30.921875 C817.389658,30.921875 818.763342,31.2831995 819.674805,32.0058594 C820.833665,32.9303432 821.413086,34.2454342 821.413086,35.9511719 C821.413086,37.7740977 820.635099,39.0338507 819.079102,39.7304688 L822.106445,46 Z M815.456055,37.9042969 L815.729492,37.9042969 C816.198245,37.9042969 816.588866,37.7252622 816.901367,37.3671875 C817.213869,37.0091128 817.370117,36.5533882 817.370117,36 C817.370117,34.8736923 816.78093,34.3105469 815.602539,34.3105469 L815.456055,34.3105469 L815.456055,37.9042969 Z M827.526367,46 L823.454102,46 L823.454102,30.921875 L827.526367,30.921875 L827.526367,46 Z M829.635742,46 L829.635742,30.921875 L837.204102,30.921875 L837.204102,34.4667969 L833.708008,34.4667969 L833.708008,36.6640625 L836.842773,36.6640625 L836.842773,40.0722656 L833.708008,40.0722656 L833.708008,42.3769531 L837.204102,42.3769531 L837.204102,46 L829.635742,46 Z M838.942383,46 L838.942383,30.921875 L842.829102,30.921875 L844.870117,36.2148438 C844.980795,36.5273453 845.106119,36.8854146 845.246094,37.2890625 C845.386068,37.6927104 845.540689,38.1582005 845.709961,38.6855469 L846.129883,40.0136719 C845.980142,38.7050716 845.866211,37.5852911 845.788086,36.6542969 C845.709961,35.7233026 845.670898,34.9420604 845.670898,34.3105469 L845.670898,30.921875 L849.557617,30.921875 L849.557617,46 L845.670898,46 L843.620117,40.453125 C843.405272,39.8606741 843.211589,39.3056667 843.039062,38.7880859 C842.866536,38.2705052 842.71517,37.7773461 842.584961,37.3085938 C842.669597,38.369797 842.731445,39.2942669 842.770508,40.0820312 C842.809571,40.8697956 842.829102,41.5598929 842.829102,42.1523438 L842.829102,46 L838.942383,46 Z M860.143555,41.3613281 L859.90918,45.7167969 C859.004227,46.081382 858.193688,46.2636719 857.477539,46.2636719 C855.791333,46.2636719 854.372076,45.6451885 853.219727,44.4082031 C851.930658,43.0214774 851.286133,41.0586064 851.286133,38.5195312 C851.286133,36.1432173 851.891596,34.2356843 853.102539,32.796875 C854.313483,31.3645762 855.931305,30.6484375 857.956055,30.6484375 C858.61361,30.6484375 859.284176,30.7721342 859.967773,31.0195312 L859.967773,35.3261719 C859.362302,34.7207001 858.740563,34.4179688 858.102539,34.4179688 C857.269202,34.4179688 856.618166,34.7727829 856.149414,35.4824219 C855.680662,36.1985713 855.446289,37.1881447 855.446289,38.4511719 C855.446289,39.0631541 855.504882,39.6100236 855.62207,40.0917969 C855.739258,40.5735701 855.9069,40.9804671 856.125,41.3125 C856.3431,41.6445329 856.611652,41.8984366 856.930664,42.0742188 C857.249676,42.2500009 857.614256,42.3378906 858.024414,42.3378906 C858.727543,42.3378906 859.433916,42.012373 860.143555,41.3613281 Z M861.735352,46 L861.735352,30.921875 L869.303711,30.921875 L869.303711,34.4667969 L865.807617,34.4667969 L865.807617,36.6640625 L868.942383,36.6640625 L868.942383,40.0722656 L865.807617,40.0722656 L865.807617,42.3769531 L869.303711,42.3769531 L869.303711,46 L861.735352,46 Z" id="VIEW-ON-A-MOBILE-DEV-Copy"></path>
        </g>
    </g>
</svg>